<svg width="263" height="84" viewBox="0 0 263 84" fill="none" xmlns="http://www.w3.org/2000/svg">
<g clip-path="url(#clip0_711_1701)">
<g clip-path="url(#clip1_711_1701)">
<path d="M25.9129 7.02246H40.2672C46.4573 7.10645 52.466 9.12727 57.4517 12.8018C62.4373 16.4764 66.1501 21.6205 68.0698 27.5137C71.4394 38.0104 69.7397 47.6675 63.0754 56.3123C58.8072 61.8646 52.6621 65.6663 45.7933 67.004C42.9542 67.5037 40.0701 67.6997 37.1897 67.5888C35.2652 67.6841 33.3366 67.6515 31.4165 67.4914C26.7066 66.8616 24.0034 62.0256 25.6133 57.347C26.1075 55.9411 27.0165 54.7188 28.2199 53.8418C29.4234 52.9648 30.8645 52.4745 32.3525 52.436C35.3476 52.436 38.3877 52.5485 41.3829 52.331C52.0532 51.5813 58.388 38.8352 52.7421 29.628C49.7469 24.687 45.3515 22.1828 39.5933 22.1903H10.3455C8.44394 22.2131 6.60498 21.5106 5.20183 20.2253C3.79867 18.9401 2.93645 17.1684 2.79016 15.2699C2.60836 13.4209 3.11456 11.5697 4.21171 10.0712C5.30886 8.57277 6.91975 7.53253 8.73557 7.14992C9.22968 7.06182 9.73145 7.02414 10.2332 7.03746L25.9129 7.02246Z" fill="#EF5B24"/>
<path d="M2.74379 55.8321V42.8686C2.74379 35.9407 6.74233 30.6398 13.4066 28.8029C14.4763 28.5157 15.5788 28.3695 16.6863 28.368C23.675 28.333 30.6862 28.333 37.7198 28.368C39.5637 28.3433 41.3434 29.0457 42.6745 30.3235C44.0057 31.6013 44.7815 33.3521 44.8346 35.1978C44.8877 37.0435 44.2138 38.836 42.9583 40.1885C41.7028 41.5409 39.9664 42.3446 38.1242 42.4262C33.5042 42.4262 28.8766 42.3287 24.2491 42.2238C23.2831 42.1744 22.3173 42.3242 21.4116 42.6639C20.5058 43.0037 19.6794 43.5262 18.9837 44.1989C18.2879 44.8717 17.7376 45.6804 17.3669 46.5749C16.9962 47.4695 16.8129 48.4307 16.8286 49.3991V70.2052C16.8809 71.5683 16.5225 72.9157 15.8001 74.0723C15.0777 75.2289 14.0246 76.1412 12.7776 76.6907C11.7 77.2118 10.5069 77.4474 9.31247 77.3748C8.11799 77.3023 6.96209 76.924 5.95533 76.2763C4.94857 75.6286 4.12464 74.7331 3.56234 73.6753C3.00005 72.6176 2.71821 71.4331 2.74379 70.2352V55.8321Z" fill="#BEBEBE"/>
</g>
</g>
<path d="M81.781 65.8285C80.2158 65.8285 78.9252 65.3817 77.9092 64.4881C76.8932 63.5945 76.3852 62.3022 76.3852 60.6112V27.0186C76.3852 25.3414 76.8932 24.0697 77.9092 23.2036C78.9252 22.3375 80.2158 21.9045 81.781 21.9045C83.3462 21.9045 84.6505 22.3375 85.694 23.2036C86.7375 24.0697 87.2592 25.3414 87.2592 27.0186V60.6112C87.2592 62.3022 86.7375 63.5945 85.694 64.4881C84.6505 65.3817 83.3462 65.8285 81.781 65.8285ZM81.781 14.1508C79.8039 14.1508 78.2387 13.6146 77.0854 12.5423C75.9321 11.4699 75.3555 10.0608 75.3555 8.31484C75.3555 6.58262 75.9321 5.1941 77.0854 4.14927C78.2387 3.10445 79.8039 2.58203 81.781 2.58203C83.6895 2.58203 85.2409 3.10445 86.4354 4.14927C87.6162 5.1941 88.2066 6.58262 88.2066 8.31484C88.2066 10.0608 87.6299 11.4699 86.4766 12.5423C85.3096 13.6146 83.7444 14.1508 81.781 14.1508Z" fill="#ECECEC"/>
<path d="M114.402 66.014C110.173 66.014 106.452 65.1135 103.24 63.3125C100.027 61.5116 97.5487 58.9614 95.805 55.6619C94.0613 52.3487 93.1895 48.4856 93.1895 44.0726C93.1895 39.6733 94.1025 35.7758 95.9286 32.3801C97.7546 28.9844 100.322 26.3586 103.631 24.5027C106.926 22.6467 110.716 21.7188 114.999 21.7188C117.265 21.7188 119.544 22.0349 121.837 22.6673C124.116 23.3135 126.127 24.1865 127.871 25.2863C129.724 26.5098 130.651 28.0496 130.651 29.9055C130.651 31.1841 130.349 32.2083 129.745 32.9781C129.127 33.7618 128.331 34.1536 127.356 34.1536C126.711 34.1536 126.045 34.0092 125.358 33.7205C124.658 33.4318 123.958 33.0881 123.258 32.6894C121.981 31.9333 120.766 31.3353 119.612 30.8954C118.459 30.4692 117.127 30.2561 115.617 30.2561C112.02 30.2561 109.253 31.4247 107.317 33.7618C105.382 36.1126 104.414 39.4946 104.414 43.9076C104.414 48.2519 105.382 51.5995 107.317 53.9503C109.253 56.3012 112.02 57.4766 115.617 57.4766C117.059 57.4766 118.349 57.2635 119.489 56.8373C120.615 56.3974 121.871 55.7994 123.258 55.0433C124.136 54.5209 124.892 54.129 125.523 53.8678C126.155 53.6066 126.793 53.476 127.438 53.476C128.358 53.476 129.141 53.8816 129.786 54.6927C130.418 55.5038 130.734 56.5211 130.734 57.7447C130.734 58.7345 130.514 59.5869 130.075 60.3018C129.649 61.0304 128.942 61.6834 127.953 62.2608C126.155 63.4294 124.068 64.3436 121.693 65.0035C119.317 65.6771 116.887 66.014 114.402 66.014Z" fill="#ECECEC"/>
<path d="M171.731 53.6616C172.719 53.6616 173.516 54.0328 174.12 54.7752C174.738 55.5313 175.047 56.5486 175.047 57.8272C175.047 59.6281 173.969 61.1404 171.813 62.3639C169.85 63.4638 167.619 64.3436 165.12 65.0035C162.635 65.6771 160.267 66.014 158.015 66.014C151.177 66.014 145.754 64.0412 141.745 60.0956C137.75 56.15 135.752 50.754 135.752 43.9076C135.752 39.5633 136.624 35.7071 138.367 32.3389C140.111 28.9707 142.555 26.3586 145.699 24.5027C148.857 22.6467 152.441 21.7188 156.45 21.7188C160.267 21.7188 163.596 22.5574 166.438 24.2346C169.28 25.9256 171.477 28.3039 173.028 31.3697C174.594 34.4492 175.376 38.0786 175.376 42.2579C175.376 44.7462 174.278 45.9904 172.081 45.9904H146.441C146.798 49.991 147.93 52.9399 149.839 54.8371C151.747 56.7205 154.527 57.6622 158.18 57.6622C160.033 57.6622 161.667 57.4285 163.081 56.9611C164.509 56.4937 166.122 55.8544 167.921 55.0433C169.651 54.1222 170.921 53.6616 171.731 53.6616ZM156.697 29.3694C153.745 29.3694 151.383 30.2973 149.612 32.1533C147.855 34.0092 146.798 36.6832 146.441 40.1751H166.088C165.964 36.6282 165.093 33.9405 163.472 32.112C161.852 30.2836 159.594 29.3694 156.697 29.3694Z" fill="#ECECEC"/>
<path d="M204.113 21.7188C207.765 21.7188 211.026 22.6467 213.895 24.5027C216.751 26.3586 218.975 28.9844 220.568 32.3801C222.174 35.7758 222.978 39.6733 222.978 44.0726C222.978 48.4856 222.174 52.3487 220.568 55.6619C218.975 58.9614 216.765 61.5116 213.937 63.3125C211.094 65.1135 207.82 66.014 204.113 66.014C201.106 66.014 198.415 65.3747 196.04 64.0962C193.664 62.8176 191.838 61.051 190.562 58.7964V76.531C190.562 78.0432 190.067 79.2324 189.079 80.0985C188.09 80.9784 186.786 81.4183 185.166 81.4183C183.546 81.4183 182.228 80.9509 181.212 80.016C180.196 79.0949 179.688 77.8783 179.688 76.366V27.0185C179.688 25.465 180.168 24.2208 181.129 23.286C182.09 22.3649 183.381 21.9043 185.001 21.9043C186.621 21.9043 187.925 22.3649 188.914 23.286C189.889 24.2208 190.376 25.465 190.376 27.0185V29.2044C191.653 26.826 193.493 24.9838 195.896 23.6778C198.298 22.3718 201.037 21.7188 204.113 21.7188ZM201.25 57.5591C204.669 57.5591 207.332 56.3905 209.241 54.0534C211.149 51.7026 212.104 48.3756 212.104 44.0726C212.104 39.6733 211.149 36.257 209.241 33.8236C207.332 31.3765 204.669 30.153 201.25 30.153C197.777 30.153 195.092 31.3422 193.198 33.7205C191.317 36.0989 190.376 39.4946 190.376 43.9076C190.376 48.2519 191.317 51.6132 193.198 53.9916C195.092 56.3699 197.777 57.5591 201.25 57.5591Z" fill="#ECECEC"/>
<path d="M256.077 57.7445C258.974 57.9232 260.422 59.2292 260.422 61.6626C260.422 63.0511 259.859 64.1097 258.733 64.8383C257.594 65.567 255.987 65.8694 253.914 65.7457L251.566 65.5807C241.832 64.8796 236.965 59.6554 236.965 49.9083V30.9364H232.619C231.054 30.9364 229.853 30.5927 229.015 29.9053C228.164 29.2042 227.738 28.1869 227.738 26.8533C227.738 25.5198 228.164 24.5025 229.015 23.8013C229.853 23.1139 231.054 22.7702 232.619 22.7702H236.965V14.7691C236.965 13.2018 237.452 11.9508 238.427 11.0159C239.415 10.0948 240.754 9.63428 242.443 9.63428C244.063 9.63428 245.36 10.0948 246.335 11.0159C247.324 11.9508 247.818 13.2018 247.818 14.7691V22.7702H255.212C256.777 22.7702 257.978 23.1139 258.816 23.8013C259.653 24.5025 260.072 25.5198 260.072 26.8533C260.072 28.1869 259.653 29.2042 258.816 29.9053C257.978 30.5927 256.777 30.9364 255.212 30.9364H247.818V50.6919C247.818 54.9812 249.788 57.2702 253.729 57.5589L256.077 57.7445Z" fill="#ECECEC"/>
<defs>
<clipPath id="clip0_711_1701">
<rect width="67.5617" height="69.8957" fill="white" transform="translate(2.74219 7.02246)"/>
</clipPath>
<clipPath id="clip1_711_1701">
<rect width="67.0099" height="70.3656" fill="white" transform="translate(2.74219 7.02246)"/>
</clipPath>
</defs>
</svg>
